<?xml version="1.0" standalone="no"?><!DOCTYPE svg PUBLIC "-//W3C//DTD SVG 1.1//EN" "http://www.w3.org/Graphics/SVG/1.1/DTD/svg11.dtd"><svg t="1601998596503" class="icon" viewBox="0 0 1024 1024" version="1.1" xmlns="http://www.w3.org/2000/svg" p-id="10735" xmlns:xlink="http://www.w3.org/1999/xlink" width="200" height="200"><defs><style type="text/css"></style></defs><path d="M302.8992 459.2128c-91.1872 0-165.376-74.3936-165.376-165.8368s74.1888-165.8368 165.376-165.8368c91.1872 0 165.376 74.3936 165.376 165.8368 0 11.3152-9.1648 20.48-20.48 20.48s-20.48-9.1648-20.48-20.48c0-68.864-55.808-124.8768-124.416-124.8768s-124.416 56.0128-124.416 124.8768 55.808 124.8768 124.416 124.8768c11.3152 0 20.48 9.1648 20.48 20.48s-9.1648 20.48-20.48 20.48z" fill="#888888" p-id="10736"></path><path d="M636.3136 459.2128H302.8992c-11.3152 0-20.48-9.1648-20.48-20.48s9.1648-20.48 20.48-20.48h333.4144c11.3152 0 20.48 9.1648 20.48 20.48s-9.1648 20.48-20.48 20.48zM730.624 459.2128c-11.3152 0-20.48-9.1648-20.48-20.48s9.1648-20.48 20.48-20.48c68.608 0 124.416-56.0128 124.416-124.8768s-55.808-124.8768-124.416-124.8768-124.416 56.0128-124.416 124.8768c0 11.3152-9.1648 20.48-20.48 20.48s-20.48-9.1648-20.48-20.48c0-91.4432 74.1888-165.8368 165.376-165.8368 91.1872 0 165.376 74.3936 165.376 165.8368s-74.24 165.8368-165.376 165.8368z" fill="#888888" p-id="10737"></path><path d="M585.728 648.3968c-11.3152 0-20.48-9.1648-20.48-20.48V293.376c0-11.3152 9.1648-20.48 20.48-20.48s20.48 9.1648 20.48 20.48v334.4896c0 11.3152-9.1648 20.5312-20.48 20.5312zM300.5952 888.32c-91.1872 0-165.376-74.3936-165.376-165.8368s74.1888-165.8368 165.376-165.8368c11.3152 0 20.48 9.1648 20.48 20.48s-9.1648 20.48-20.48 20.48c-68.608 0-124.416 56.0128-124.416 124.8768s55.808 124.8768 124.416 124.8768 124.416-56.0128 124.416-124.8768c0-11.3152 9.1648-20.48 20.48-20.48s20.48 9.1648 20.48 20.48c0 91.4432-74.1888 165.8368-165.376 165.8368z" fill="#888888" p-id="10738"></path><path d="M445.4912 742.9632c-11.3152 0-20.48-9.1648-20.48-20.48V387.9936c0-11.3152 9.1648-20.48 20.48-20.48s20.48 9.1648 20.48 20.48v334.4896c0 11.3152-9.216 20.48-20.48 20.48zM730.624 886.1184c-91.1872 0-165.376-74.3936-165.376-165.8368 0-11.3152 9.1648-20.48 20.48-20.48s20.48 9.1648 20.48 20.48c0 68.864 55.808 124.8768 124.416 124.8768s124.416-56.0128 124.416-124.8768-55.808-124.8768-124.416-124.8768c-11.3152 0-20.48-9.1648-20.48-20.48s9.1648-20.48 20.48-20.48c91.1872 0 165.376 74.3936 165.376 165.8368s-74.24 165.8368-165.376 165.8368z" fill="#888888" p-id="10739"></path><path d="M730.624 595.4048H397.1584c-11.3152 0-20.48-9.1648-20.48-20.48s9.1648-20.48 20.48-20.48h333.4144c11.3152 0 20.48 9.1648 20.48 20.48s-9.1648 20.48-20.4288 20.48z" fill="#888888" p-id="10740"></path></svg>