<?xml version="1.0" standalone="no"?><!DOCTYPE svg PUBLIC "-//W3C//DTD SVG 1.1//EN" "http://www.w3.org/Graphics/SVG/1.1/DTD/svg11.dtd"><svg t="1601998641378" class="icon" viewBox="0 0 1024 1024" version="1.1" xmlns="http://www.w3.org/2000/svg" p-id="11028" xmlns:xlink="http://www.w3.org/1999/xlink" width="200" height="200"><defs><style type="text/css"></style></defs><path d="M258.2528 856.7296a40.6016 40.6016 0 0 1-21.0944-5.9392c-12.3392-7.424-19.7632-20.48-19.8144-34.9184l-0.2048-51.9168c0-5.12-3.328-9.6256-7.7824-10.6496-55.7568-13.1072-94.72-62.3104-94.72-119.6544V295.9872c0-67.7376 55.1424-122.88 122.88-122.88h535.808c67.7376 0 122.88 55.1424 122.88 122.88v337.7152c0 67.7376-55.1424 122.88-122.88 122.88H462.3872c-1.6384 0-3.2768 0.4096-4.7616 1.1776l-180.3776 94.3104c-6.0416 3.1232-12.544 4.6592-18.9952 4.6592zM237.4144 214.0672c-45.1584 0-81.92 36.7616-81.92 81.92v337.7152c0 38.2464 25.9584 71.0656 63.1296 79.7696 23.0912 5.4272 39.2704 26.112 39.424 50.3808l0.2048 51.9168 180.3776-94.3104c7.2704-3.7888 15.5136-5.8368 23.7056-5.8368h310.8864c45.1584 0 81.92-36.7616 81.92-81.92V295.9872c0-45.1584-36.7616-81.92-81.92-81.92H237.4144z" fill="#888888" p-id="11029"></path><path d="M705.4336 399.3088H295.0144c-11.3152 0-20.48-9.1648-20.48-20.48s9.1648-20.48 20.48-20.48h410.4192c11.3152 0 20.48 9.1648 20.48 20.48s-9.216 20.48-20.48 20.48zM548.608 576.1024H295.0144c-11.3152 0-20.48-9.1648-20.48-20.48s9.1648-20.48 20.48-20.48h253.5936c11.3152 0 20.48 9.1648 20.48 20.48s-9.1648 20.48-20.48 20.48z" fill="#888888" p-id="11030"></path></svg>