<?xml version="1.0" standalone="no"?><!DOCTYPE svg PUBLIC "-//W3C//DTD SVG 1.1//EN" "http://www.w3.org/Graphics/SVG/1.1/DTD/svg11.dtd"><svg t="1601998547338" class="icon" viewBox="0 0 1024 1024" version="1.1" xmlns="http://www.w3.org/2000/svg" p-id="10589" xmlns:xlink="http://www.w3.org/1999/xlink" width="200" height="200"><defs><style type="text/css"></style></defs><path d="M716.4416 916.1728h-119.6544c-11.3152 0-20.48-9.1648-20.48-20.48v-197.9392c0-27.8528-22.9888-50.4832-51.2-50.4832h-38.656c-28.2112 0-51.2 22.6304-51.2 50.4832v197.9392c0 11.3152-9.1648 20.48-20.48 20.48H295.0656c-50.7904 0-92.16-41.0112-92.16-91.4432v-253.4912H148.48c-20.8896 0-39.4752-12.3904-47.36-31.6416-7.9872-19.3536-3.6864-40.5504 11.2128-55.296l357.3248-354.3552c19.9168-19.7632 52.3776-19.7632 72.3456 0l103.4752 102.656a20.47488 20.47488 0 0 1 0.1024 28.9792 20.47488 20.47488 0 0 1-28.9792 0.1024l-103.4752-102.656a10.4448 10.4448 0 0 0-14.6432 0l-357.3248 354.3552c-4.0448 4.0448-3.1232 8.3968-2.2016 10.6496 0.768 1.8944 3.2768 6.2464 9.5232 6.2464h74.9568c11.3152 0 20.48 9.1648 20.48 20.48v273.9712c0 27.8528 22.9888 50.4832 51.2 50.4832h99.1744v-177.4592c0-50.432 41.3696-91.4432 92.16-91.4432h38.656c50.7904 0 92.16 41.0112 92.16 91.4432v177.4592h99.1744c28.2112 0 51.2-22.6304 51.2-50.4832v-273.9712c0-11.3152 9.1648-20.48 20.48-20.48h74.9568c6.2464 0 8.7552-4.352 9.5232-6.2464 0.9216-2.2528 1.8432-6.6048-2.2016-10.6496l-160.768-159.4368a20.4288 20.4288 0 0 1-6.0416-14.4384l-0.6656-139.2128c0-0.1024-0.1536-10.0352-10.24-10.0352H633.344c-11.3152 0-20.48-9.1648-20.48-20.48s9.1648-20.48 20.48-20.48h59.3408c35.1744 0 51.0976 29.696 51.2 50.8416l0.6144 130.7136 154.7264 153.4464c14.8992 14.7456 19.2 35.9424 11.2128 55.296a51.03104 51.03104 0 0 1-47.36 31.6416h-54.4768v253.4912c0 50.3808-41.3184 91.4432-92.16 91.4432z" fill="#888888" p-id="10590"></path></svg>